<?xml version="1.0" encoding="utf-8"?>
<!-- Generator: Adobe Illustrator 28.2.0, SVG Export Plug-In . SVG Version: 6.00 Build 0)  -->
<svg version="1.1" id="Laag_1" xmlns="http://www.w3.org/2000/svg" xmlns:xlink="http://www.w3.org/1999/xlink" x="0px" y="0px"
	 viewBox="0 0 148.9 148.5" style="enable-background:new 0 0 148.9 148.5;" xml:space="preserve">
<g id="_x33_SPzii.tif">
	<g>
		<path d="M0,74.1C0,33.2,33.4,0,74.5,0c41.1,0,74.5,33.3,74.4,74.4c0,41-33.5,74.2-74.7,74.1C33.2,148.4,0,115.1,0,74.1z
			 M74.4,11.4c-34.9,0.1-62.9,28-62.9,62.9c0,34.8,28.1,62.8,63,62.8c34.9,0,62.9-28,62.9-62.8C137.4,39.4,109.3,11.4,74.4,11.4z"/>
		<path d="M59.1,77.1c6.2,5.6,12.2,11,18.2,16.5c4.8,4.3,9.5,8.6,14.3,12.9c2.9,2.6,3.3,6.1,1,8.7c-2.3,2.5-5.8,2.4-8.7-0.2
			c-12.1-11-24.3-21.9-36.4-32.9c-3.8-3.4-3.8-6.6,0-10c12.1-11,24.2-21.9,36.4-32.9c3-2.7,6.4-2.8,8.7-0.2c2.4,2.6,2,6-1.1,8.8
			C81.2,57.2,70.8,66.6,60.4,76C60,76.3,59.7,76.6,59.1,77.1z"/>
	</g>
</g>
</svg>
