<?xml version="1.0" encoding="utf-8"?>
<!-- Generator: Adobe Illustrator 28.2.0, SVG Export Plug-In . SVG Version: 6.00 Build 0)  -->
<svg version="1.1" id="Laag_1" xmlns="http://www.w3.org/2000/svg" xmlns:xlink="http://www.w3.org/1999/xlink" x="0px" y="0px"
	 viewBox="0 0 195.8 148.5" style="enable-background:new 0 0 195.8 148.5;" xml:space="preserve">
<style type="text/css">
	.st0{fill:#FFFFFF;}
</style>
<g id="yvfJH1.tif">
	<g>
		<path class="st0" d="M98.1,0c27.2,0,54.5,0,81.7,0.1c2.7,0,5.6,0.4,8,1.5c6,2.6,9,9.1,7.7,15.5c-1.2,6.4-6.6,11.1-13.3,11.5
			c-0.6,0-1.2,0-1.7,0c-55,0-110,0-165,0c-8.3,0-14.1-4.8-15.3-12.5C-1,8.4,5,0.7,12.8,0.1C14.1,0,15.5,0,16.8,0C43.9,0,71,0,98.1,0
			z"/>
		<path class="st0" d="M98.1,60c19.6,0,39.2,0,58.7,0c6.6,0,11.5,2.7,14.1,8.7c3.7,8.6-1.8,18.2-11,19.6c-0.9,0.1-1.8,0.2-2.7,0.2
			c-39.6,0-79.2,0-118.7,0c-6.3,0-11.1-2.9-13.6-8.8c-3.9-9,2.4-19.3,12.3-19.7c8.6-0.3,17.2-0.1,25.7-0.1C74.6,60,86.4,60,98.1,60z
			"/>
		<path class="st0" d="M97.9,148.4c-8.1,0-16.2,0.1-24.2,0c-10.1-0.2-16.8-9.3-13.8-18.5c1.8-5.5,5.7-8.8,11.5-9.8
			c1.1-0.2,2.2-0.2,3.2-0.2c15.5,0,31,0,46.5,0c7.5,0,12.9,3.8,14.8,10.2c2.6,8.6-3.4,17.7-12.3,18.1c-8.6,0.4-17.1,0.1-25.7,0.1
			C97.9,148.4,97.9,148.4,97.9,148.4z"/>
	</g>
</g>
</svg>
